<svg width="180" height="30" viewBox="0 0 180 30" fill="none" xmlns="http://www.w3.org/2000/svg">
<g clip-path="url(#clip0_101_30)">
<path d="M47.2537 8.46973V23.447H43.0603V17.6068H37.3457V23.447H33.1523V8.46973H37.3457V14.0976H43.0603V8.46973H47.2537Z" fill="#103A36"/>
<path d="M52.4572 22.8653C51.4714 22.3495 50.6958 21.6366 50.1404 20.7264C49.5849 19.8162 49.3047 18.7797 49.3047 17.6268C49.3047 16.4739 49.5849 15.4576 50.1404 14.5474C50.6958 13.6372 51.4664 12.9243 52.4472 12.4186C53.428 11.913 54.5389 11.6602 55.7799 11.6602C57.0209 11.6602 58.1368 11.913 59.1276 12.4186C60.1134 12.9243 60.884 13.6322 61.4345 14.5373C61.9849 15.4424 62.2601 16.4739 62.2601 17.6268C62.2601 18.7797 61.9849 19.8162 61.4345 20.7264C60.884 21.6416 60.1134 22.3546 59.1276 22.8653C58.1418 23.381 57.0259 23.6339 55.7799 23.6339C54.5339 23.6339 53.443 23.376 52.4572 22.8653ZM57.5163 19.6696C57.9667 19.1791 58.1918 18.4965 58.1918 17.6268C58.1918 16.7571 57.9667 16.0997 57.5163 15.6143C57.0659 15.1289 56.4855 14.8862 55.7799 14.8862C55.0743 14.8862 54.4939 15.1289 54.0435 15.6143C53.5931 16.0997 53.368 16.7672 53.368 17.6268C53.368 18.4864 53.5931 19.1791 54.0435 19.6696C54.4939 20.1601 55.0743 20.4078 55.7799 20.4078C56.4855 20.4078 57.0659 20.1601 57.5163 19.6696Z" fill="#103A36"/>
<path d="M82.8167 11.8525L78.7284 23.447H74.8303L72.6685 17.1365L70.4267 23.447H66.5336L62.4453 11.8525H66.2584L68.6103 18.8709L71.0472 11.8525H74.475L76.8469 18.9316L79.2839 11.8525H82.8217H82.8167Z" fill="#103A36"/>
<path d="M107.24 14.5373C106.69 13.6322 105.919 12.9243 104.933 12.4187C103.948 11.913 102.832 11.6602 101.586 11.6602H91.6778V8.47461H87.4344V11.6551H85.668V14.8609H87.4344V18.9668C87.4344 20.5191 87.8597 21.6821 88.7054 22.4658C89.5561 23.2496 90.7671 23.6389 92.3484 23.6389C92.9288 23.6389 93.4743 23.5783 93.9897 23.4569C94.5051 23.3356 94.9404 23.1636 95.2957 22.9361L94.2449 19.9326C93.8746 20.1904 93.4392 20.3168 92.9488 20.3168C92.5635 20.3168 92.2533 20.1904 92.0231 19.9427C91.7929 19.6949 91.6778 19.3511 91.6778 18.9162V14.8508H95.7811C95.3408 15.6851 95.1056 16.6054 95.1056 17.6218C95.1056 18.7746 95.3858 19.8112 95.9412 20.7214C96.4967 21.6366 97.2723 22.3495 98.2581 22.8602C99.2439 23.376 100.355 23.6288 101.581 23.6288C102.807 23.6288 103.938 23.3709 104.928 22.8602C105.914 22.3445 106.685 21.6315 107.235 20.7214C107.786 19.8112 108.061 18.7746 108.061 17.6218C108.061 16.4689 107.786 15.4374 107.235 14.5323L107.24 14.5373ZM103.322 19.6696C102.872 20.1601 102.291 20.4079 101.586 20.4079C100.88 20.4079 100.3 20.1601 99.8494 19.6696C99.399 19.1791 99.1739 18.4965 99.1739 17.6268C99.1739 16.7571 99.399 16.0998 99.8494 15.6143C100.3 15.1289 100.88 14.8862 101.586 14.8862C102.291 14.8862 102.872 15.1289 103.322 15.6143C103.773 16.0998 103.998 16.7672 103.998 17.6268C103.998 18.4864 103.773 19.1791 103.322 19.6696Z" fill="#9FBCB8"/>
<path d="M125.168 8.46973V23.447H120.974V17.6068H115.26V23.447H111.066V8.46973H115.26V14.0976H120.974V8.46973H125.168Z" fill="#103A36"/>
<path d="M130.375 22.8653C129.389 22.3495 128.614 21.6366 128.058 20.7264C127.503 19.8162 127.223 18.7797 127.223 17.6268C127.223 16.4739 127.503 15.4576 128.058 14.5474C128.614 13.6372 129.384 12.9243 130.365 12.4186C131.346 11.913 132.457 11.6602 133.698 11.6602C134.939 11.6602 136.055 11.913 137.046 12.4186C138.031 12.9243 138.802 13.6322 139.352 14.5373C139.903 15.4424 140.178 16.4739 140.178 17.6268C140.178 18.7797 139.903 19.8162 139.352 20.7264C138.802 21.6416 138.031 22.3546 137.046 22.8653C136.06 23.381 134.944 23.6339 133.698 23.6339C132.452 23.6339 131.361 23.376 130.375 22.8653ZM135.434 19.6696C135.885 19.1791 136.11 18.4965 136.11 17.6268C136.11 16.7571 135.885 16.0997 135.434 15.6143C134.984 15.1289 134.403 14.8862 133.698 14.8862C132.992 14.8862 132.412 15.1289 131.961 15.6143C131.511 16.0997 131.286 16.7672 131.286 17.6268C131.286 18.4864 131.511 19.1791 131.961 19.6696C132.412 20.1601 132.992 20.4078 133.698 20.4078C134.403 20.4078 134.984 20.1601 135.434 19.6696Z" fill="#103A36"/>
<path d="M154.111 11.8525V23.447H150.278V22.2082C149.852 22.6784 149.347 23.0374 148.752 23.2801C148.156 23.5229 147.531 23.6442 146.865 23.6442C145.384 23.6442 144.203 23.2043 143.317 22.3194C142.436 21.4345 141.996 20.1097 141.996 18.34V11.8576H146.019V17.6776C146.019 18.5473 146.179 19.1844 146.505 19.5839C146.83 19.9833 147.3 20.1805 147.921 20.1805C148.541 20.1805 149.077 19.9581 149.477 19.508C149.877 19.058 150.083 18.3703 150.083 17.445V11.8627H154.106L154.111 11.8525Z" fill="#103A36"/>
<path d="M158.031 23.3052C157.1 23.0827 156.35 22.7945 155.789 22.4405L156.995 19.6595C157.515 19.9882 158.136 20.246 158.857 20.4382C159.577 20.6303 160.288 20.7264 160.993 20.7264C161.644 20.7264 162.104 20.6607 162.379 20.5241C162.655 20.3876 162.79 20.1904 162.79 19.9376C162.79 19.6848 162.625 19.4977 162.294 19.3915C161.964 19.2853 161.439 19.1791 160.718 19.083C159.802 18.9667 159.022 18.8201 158.376 18.633C157.736 18.4459 157.18 18.1071 156.715 17.6066C156.249 17.106 156.014 16.4082 156.014 15.5081C156.014 14.7648 156.234 14.1075 156.67 13.531C157.105 12.9546 157.746 12.4995 158.586 12.1607C159.427 11.827 160.433 11.6602 161.604 11.6602C162.434 11.6602 163.26 11.7461 164.081 11.918C164.901 12.09 165.582 12.3327 166.132 12.6462L164.926 15.407C163.911 14.8356 162.81 14.5525 161.624 14.5525C160.988 14.5525 160.523 14.6283 160.228 14.7749C159.932 14.9216 159.782 15.1188 159.782 15.3615C159.782 15.6345 159.942 15.8216 160.268 15.9278C160.593 16.034 161.128 16.1452 161.879 16.2615C162.825 16.4031 163.605 16.57 164.231 16.752C164.851 16.9391 165.392 17.2779 165.852 17.7684C166.313 18.2588 166.538 18.9465 166.538 19.8314C166.538 20.5595 166.318 21.2118 165.882 21.7883C165.447 22.3647 164.796 22.8198 163.946 23.1484C163.09 23.4771 162.064 23.6389 160.863 23.6389C159.902 23.6389 158.957 23.5277 158.026 23.3052H158.031Z" fill="#103A36"/>
<path d="M179.944 18.6735H171.602C171.772 19.2701 172.097 19.7303 172.588 20.0539C173.078 20.3775 173.684 20.5343 174.419 20.5343C174.97 20.5343 175.445 20.4584 175.85 20.2966C176.251 20.1398 176.656 19.882 177.066 19.528L179.183 21.7529C178.067 23.0069 176.436 23.6339 174.294 23.6339C172.953 23.6339 171.777 23.376 170.756 22.8653C169.735 22.3546 168.955 21.6366 168.394 20.7264C167.839 19.8162 167.559 18.7797 167.559 17.6268C167.559 16.4739 167.829 15.4626 168.374 14.5575C168.92 13.6524 169.67 12.9445 170.631 12.4287C171.592 11.913 172.673 11.6602 173.869 11.6602C175.065 11.6602 176.05 11.8978 176.981 12.3782C177.912 12.8585 178.653 13.5462 179.193 14.4513C179.738 15.3564 180.009 16.4284 180.009 17.6723C180.009 17.7026 179.989 18.0364 179.944 18.6785V18.6735ZM172.332 15.0783C171.917 15.4373 171.652 15.9177 171.537 16.5346H176.236C176.12 15.9228 175.855 15.4373 175.44 15.0783C175.025 14.7244 174.504 14.5423 173.884 14.5423C173.263 14.5423 172.743 14.7193 172.327 15.0783H172.332Z" fill="#103A36"/>
<path d="M12.9254 16.0547C12.7353 16.0547 12.5501 16.0648 12.36 16.0951C10.4134 16.3783 9.01727 18.1531 9.01727 20.1454V27.9778C9.01727 29.0953 8.12154 30.0004 7.01565 30.0004H5.00403C2.2368 30.0004 0 27.7351 0 24.944V19.8774C3.728 17.4604 8.16158 16.0547 12.9254 16.0547Z" fill="url(#paint0_linear_101_30)"/>
<path d="M25.8858 15.9026V24.9435C25.8858 27.7347 23.644 30 20.8818 30H18.8702C17.7643 30 16.8686 29.0949 16.8686 27.9774V20.0185C16.8686 17.8999 15.2223 16.1655 13.1456 16.0593C13.0705 16.0543 13.0005 16.0543 12.9254 16.0543C8.16157 16.0543 3.728 17.46 0 19.877V3.96427C0 2.87207 0.440355 1.881 1.15093 1.16299C1.8615 0.444969 2.84229 0 3.92316 0C6.08991 0 7.85132 1.77482 7.85132 3.96427V5.75426C7.85132 6.18911 8.34672 6.42171 8.67198 6.1436L9.70782 5.25872C11.5743 3.66088 14.3065 3.66088 16.173 5.25872L24.1144 12.0394C25.2353 13.0002 25.8858 14.416 25.8858 15.9026Z" fill="#9FBCB8"/>
</g>
<defs>
<linearGradient id="paint0_linear_101_30" x1="2.03164" y1="29.0245" x2="6.44361" y2="16.0997" gradientUnits="userSpaceOnUse">
<stop stop-color="#9FBCB8"/>
<stop offset="1" stop-color="#103A36"/>
</linearGradient>
<clipPath id="clip0_101_30">
<rect width="180" height="30" fill="white"/>
</clipPath>
</defs>
</svg>
