<svg width="267" height="46" viewBox="0 0 267 46" fill="none" xmlns="http://www.w3.org/2000/svg">
<path d="M67.6329 23.342C66.4795 22.4044 65.0802 21.7984 63.5923 21.5921L60.1982 20.9235C59.7412 20.8462 59.2941 20.721 58.8648 20.55C58.4825 20.4018 58.1428 20.1657 57.8749 19.8618C57.626 19.547 57.4974 19.1577 57.5112 18.7607C57.5047 18.313 57.6386 17.874 57.8951 17.5023C58.1768 17.123 58.5519 16.8188 58.986 16.6175C59.5327 16.3824 60.1261 16.2682 60.7235 16.2832C61.3687 16.2682 62.0076 16.4101 62.5822 16.6961C63.1185 16.9724 63.5659 17.3874 63.8752 17.8955C64.2088 18.4378 64.3964 19.0532 64.4206 19.6848H68.7037C68.6636 18.4303 68.2495 17.2143 67.5117 16.1849C66.785 15.2016 65.8111 14.4163 64.6833 13.9041C63.4191 13.3315 62.0367 13.049 60.6427 13.0782C59.3206 13.0541 58.0095 13.316 56.8041 13.8451C55.7419 14.2993 54.8269 15.0266 54.1575 15.9489C53.5323 16.8336 53.2009 17.8836 53.208 18.9573C53.1876 19.6849 53.3253 20.4086 53.612 21.0808C53.8822 21.6701 54.2742 22.1988 54.7636 22.6342C55.2606 23.0876 55.8349 23.4535 56.4607 23.7156C57.1022 24.0121 57.7817 24.2237 58.481 24.3448L61.7741 24.974C62.5058 25.0625 63.2017 25.3334 63.7944 25.7605C64.0249 25.9333 64.2094 26.1574 64.3324 26.414C64.4555 26.6706 64.5134 26.9522 64.5015 27.2352C64.5163 27.724 64.3434 28.2007 64.0166 28.5722C63.6751 28.9704 63.2279 29.2697 62.7236 29.4374C62.1136 29.6448 61.4705 29.7446 60.8245 29.7323C59.7543 29.7898 58.7012 29.4528 57.8749 28.7885C57.1633 28.1088 56.7566 27.183 56.7435 26.2127H52.4604C52.5462 27.4893 52.9708 28.7223 53.6928 29.7913C54.423 30.8168 55.4297 31.6264 56.6021 32.1311C57.9718 32.7082 59.4536 32.9899 60.9457 32.9569C62.4475 33.022 63.9453 32.76 65.3298 32.1901C66.4487 31.7175 67.408 30.9475 68.0976 29.9683C68.7495 28.9994 69.0873 27.8623 69.0673 26.7043C69.0979 26.0756 68.9851 25.4481 68.7371 24.8668C68.4891 24.2855 68.112 23.7648 67.6329 23.342Z" fill="#1C3948"/>
<path d="M84.5363 23.1454C84.2861 22.1605 83.8172 21.241 83.1625 20.4516C82.5116 19.6847 81.6893 19.0727 80.7583 18.6623C79.6342 18.1712 78.4079 17.9422 77.1768 17.9934C75.9458 18.0446 74.744 18.3746 73.667 18.9573C72.5675 19.5875 71.6662 20.4987 71.0608 21.592C70.3979 22.8 70.0706 24.1556 70.1113 25.5245C70.0872 26.8895 70.4062 28.2395 71.0406 29.457C71.6346 30.5584 72.5386 31.4723 73.6468 32.0918C74.8415 32.7256 76.1857 33.0442 77.546 33.0159C79.174 33.0675 80.7733 32.5902 82.0917 31.6592C83.3544 30.7178 84.223 29.3624 84.5363 27.8447H80.7381C80.5433 28.505 80.1317 29.0851 79.5663 29.4963C78.9328 29.9047 78.1843 30.1109 77.4248 30.0862C76.8263 30.0964 76.2374 29.9395 75.7277 29.634C75.2188 29.3354 74.8113 28.8978 74.556 28.3756C74.2694 27.7572 74.1181 27.0876 74.1115 26.4093H84.5363C84.7708 25.3333 84.7708 24.2214 84.5363 23.1454ZM74.1923 24.0498C74.2409 23.4498 74.4199 22.8668 74.7176 22.3392C74.9794 21.8597 75.3705 21.4586 75.849 21.1791C76.348 20.9068 76.9135 20.7709 77.4854 20.7859C77.8962 20.7712 78.3054 20.8426 78.6853 20.9953C79.0652 21.1479 79.407 21.3783 79.6875 21.6707C80.2511 22.3386 80.5391 23.1866 80.4957 24.0498H74.1923Z" fill="#1C3948"/>
<path d="M101.891 18.2887L99.3854 27.4317L96.759 18.2887H92.9204L90.193 27.4317L87.6878 18.2887H83.9301L88.1323 32.7209H91.9911L94.7993 23.3223L97.6075 32.7209H101.426L105.669 18.269L101.891 18.2887Z" fill="#1C3948"/>
<path d="M119.246 23.1455C118.98 22.1625 118.505 21.2447 117.852 20.4518C117.205 19.6807 116.382 19.0679 115.448 18.6625C114.338 18.1829 113.13 17.9599 111.917 18.0111C110.704 18.0623 109.52 18.3862 108.457 18.9574C107.358 19.5877 106.456 20.4989 105.851 21.5922C105.181 22.7975 104.853 24.155 104.902 25.5247C104.867 26.8906 105.187 28.243 105.831 29.4572C106.425 30.5585 107.329 31.4724 108.437 32.0919C109.625 32.7233 110.962 33.0418 112.316 33.016C113.949 33.0563 115.548 32.565 116.862 31.62C118.121 30.6893 118.996 29.3498 119.326 27.8448H115.508C115.328 28.5118 114.913 29.0962 114.336 29.4965C113.74 29.8874 113.035 30.0931 112.316 30.0863C111.711 30.096 111.116 29.9392 110.599 29.6341C110.101 29.3283 109.702 28.8922 109.447 28.3757C109.151 27.7605 108.999 27.0889 109.003 26.4095H119.488C119.643 25.317 119.561 24.2049 119.246 23.1455ZM108.902 24.05C108.944 23.4515 109.116 22.8684 109.407 22.3394C109.682 21.8629 110.079 21.4634 110.558 21.1793C111.049 20.9048 111.609 20.7686 112.175 20.786C112.588 20.7711 113.001 20.8423 113.384 20.9949C113.767 21.1475 114.113 21.3779 114.397 21.6708C114.982 22.3301 115.292 23.1791 115.266 24.05H108.902Z" fill="#1C3948"/>
<path d="M125.973 18.9574C124.985 19.4637 124.16 20.2258 123.589 21.1596V18.2889H120.053V32.7211H123.892V25.7213C123.839 24.8571 124.08 24.0001 124.579 23.2831C125.089 22.6814 125.807 22.2827 126.599 22.1624C127.542 21.9727 128.51 21.9263 129.468 22.0247V18.2299C128.253 18.1081 127.03 18.3628 125.973 18.9574Z" fill="#1C3948"/>
<path d="M150.66 23.4343C149.506 22.4966 148.107 21.8906 146.619 21.6843L143.205 21.0158C142.747 20.9321 142.3 20.8003 141.871 20.6225C141.489 20.4744 141.149 20.2382 140.881 19.9343C140.634 19.6264 140.505 19.2437 140.518 18.8529C140.504 18.4043 140.639 17.9634 140.901 17.5945C141.182 17.2092 141.557 16.8983 141.992 16.69C142.539 16.4549 143.132 16.3408 143.73 16.3558C144.375 16.3408 145.014 16.4827 145.589 16.7687C146.121 17.0505 146.567 17.4643 146.882 17.9681C147.215 18.5104 147.403 19.1258 147.427 19.7574H151.71C151.667 18.5035 151.253 17.2884 150.518 16.2575C149.787 15.3056 148.821 14.5483 147.71 14.0553C146.444 13.4895 145.062 13.2137 143.669 13.2491C142.349 13.2188 141.038 13.474 139.831 13.9963C138.79 14.4382 137.884 15.1361 137.204 16.0215C136.558 16.927 136.219 18.0063 136.235 19.1085C136.214 19.8362 136.352 20.5598 136.639 21.2321C136.909 21.8213 137.301 22.3501 137.79 22.7854C138.292 23.2386 138.865 23.6103 139.487 23.8865C140.133 24.1684 140.811 24.3731 141.508 24.496L144.801 25.1252C145.532 25.2138 146.228 25.4847 146.821 25.9117C147.051 26.0845 147.236 26.3087 147.359 26.5653C147.482 26.8219 147.54 27.1035 147.528 27.3864C147.543 27.8753 147.37 28.352 147.043 28.7234C146.702 29.1216 146.254 29.4209 145.75 29.5886C145.14 29.796 144.497 29.8959 143.851 29.8835C142.767 29.9511 141.698 29.6135 140.861 28.9397C140.15 28.2601 139.743 27.3342 139.73 26.364H135.487C135.573 27.6405 135.997 28.8735 136.719 29.9425C137.45 30.968 138.456 31.7776 139.629 32.2823C140.998 32.8594 142.48 33.1411 143.972 33.1082C145.479 33.1546 146.977 32.8725 148.356 32.2823C149.475 31.8098 150.435 31.0397 151.124 30.0605C151.778 29.0926 152.116 27.9548 152.094 26.7965C152.122 26.1681 152.008 25.5415 151.76 24.9606C151.512 24.3797 151.136 23.8587 150.66 23.4343Z" fill="#1C3948"/>
<path d="M161.872 18.3813V26.7379C161.887 27.3087 161.763 27.8749 161.509 28.3895C161.297 28.822 160.96 29.1845 160.539 29.4316C160.149 29.6589 159.7 29.7747 159.246 29.7659C158.907 29.784 158.568 29.7321 158.251 29.6135C157.934 29.4948 157.646 29.3122 157.407 29.0777C156.887 28.4532 156.634 27.6574 156.7 26.8559V18.3813H152.862V27.5834C152.824 28.6561 153.052 29.7218 153.528 30.69C153.928 31.4679 154.572 32.1016 155.367 32.499C156.182 32.9164 157.092 33.1261 158.013 33.1085C158.878 33.1164 159.729 32.8992 160.478 32.4793C161.166 32.1034 161.744 31.5618 162.155 30.9063V32.8726H165.691V18.3813H161.872Z" fill="#1C3948"/>
<path d="M173.085 18.9711C172.097 19.4774 171.272 20.2395 170.701 21.1732V18.3812H167.165V32.8331H171.004V25.8529C170.946 24.9822 171.188 24.1175 171.691 23.3951C172.201 22.7934 172.92 22.3946 173.711 22.2743C174.654 22.0847 175.622 22.0382 176.58 22.1367V18.3222C175.374 18.1766 174.151 18.4036 173.085 18.9711Z" fill="#1C3948"/>
<path d="M188.183 18.3809L184.627 28.566L181.112 18.3809H176.95L182.364 32.8327H186.587L192.042 18.3809H188.183Z" fill="#1C3948"/>
<path d="M205.133 23.2376C204.868 22.2546 204.393 21.3368 203.739 20.5438C203.097 19.7685 202.272 19.1548 201.335 18.7546C200.359 18.3205 199.297 18.0991 198.224 18.1057C196.885 18.0874 195.566 18.4202 194.406 19.0692C193.31 19.7049 192.41 20.6147 191.799 21.7039C191.136 22.9119 190.809 24.2675 190.85 25.6364C190.816 27.0024 191.135 28.3547 191.779 29.5689C192.373 30.6702 193.277 31.5842 194.385 32.2037C195.576 32.8463 196.923 33.1655 198.285 33.1278C199.893 33.152 201.466 32.6691 202.77 31.7514C204.02 30.8078 204.886 29.4632 205.214 27.9566H201.416C201.222 28.6222 200.801 29.2043 200.224 29.6082C199.627 29.9992 198.923 30.2049 198.204 30.1981C197.598 30.2144 197.001 30.0571 196.486 29.7459C195.989 29.4401 195.59 29.0039 195.335 28.4875C195.048 27.8691 194.897 27.1995 194.89 26.5212H205.376C205.534 25.4223 205.451 24.3032 205.133 23.2376ZM194.789 24.1421C194.838 23.5421 195.017 22.959 195.315 22.4314C195.582 21.9558 195.972 21.556 196.446 21.2714C196.948 21.006 197.511 20.8706 198.083 20.8781C198.493 20.8634 198.902 20.9349 199.282 21.0875C199.662 21.2402 200.004 21.4705 200.285 21.7629C200.87 22.4222 201.18 23.2711 201.153 24.1421H194.789Z" fill="#1C3948"/>
<path d="M215.498 18.3809L212.083 28.2121L208.386 18.3809H204.224L209.982 32.6754L207.962 38.0629H212.124L219.397 18.4005L215.498 18.3809Z" fill="#1C3948"/>
<path d="M25.9056 2.71798L25.5629 2.67351C25.1746 2.67351 24.7749 2.60682 24.4208 2.5957C24.5 2.74698 24.5393 2.91506 24.535 3.08479C24.5378 3.31027 24.4701 3.53124 24.3409 3.71839C24.2359 3.86563 24.0959 3.986 23.9329 4.06922C23.7698 4.15245 23.5885 4.19607 23.4043 4.19636C23.2202 4.19607 23.0389 4.15245 22.8758 4.06922C22.7127 3.986 22.5727 3.86563 22.4678 3.71839C22.3345 3.53253 22.2627 3.31145 22.2622 3.08479C22.2634 2.91563 22.3024 2.74875 22.3764 2.5957C21.9767 2.5957 21.5769 2.5957 21.2343 2.67351H20.8916C15.5441 3.30368 10.6455 5.89667 7.19591 9.92303C3.74634 13.9494 2.00604 19.1054 2.33038 24.3383C2.65471 29.5712 5.01921 34.4863 8.94107 38.0799C12.8629 41.6735 18.0463 43.6746 23.4329 43.6746C28.8194 43.6746 34.0028 41.6735 37.9247 38.0799C41.8465 34.4863 44.211 29.5712 44.5354 24.3383C44.8597 19.1054 43.1194 13.9494 39.6698 9.92303C36.2203 5.89667 31.3216 3.30368 25.9741 2.67351L25.9056 2.71798ZM42.5807 28.4397C42.3859 29.127 42.1495 29.8026 41.8726 30.4627C40.5467 33.6386 38.3815 36.4169 35.5966 38.5157C32.8117 40.6146 29.5061 41.9595 26.0149 42.4141C22.5237 42.8687 18.9711 42.4168 15.7172 41.1042C12.4634 39.7916 9.62397 37.665 7.48691 34.94C5.34985 32.215 3.99112 28.9885 3.54848 25.5876C3.10585 22.1868 3.59504 18.7324 4.96646 15.5749C6.33789 12.4174 8.54278 9.66891 11.3576 7.60816C14.1724 5.5474 17.497 4.24764 20.9944 3.84066H21.2685C21.3615 4.0985 21.505 4.33632 21.6911 4.54095C21.9074 4.7618 22.1681 4.93695 22.4569 5.05552C22.7458 5.17408 23.0566 5.23352 23.3701 5.23012C23.6924 5.23105 24.011 5.16281 24.3032 5.03024C24.5954 4.89767 24.8539 4.70404 25.0604 4.46314C25.2503 4.26125 25.3943 4.02262 25.483 3.76285C25.5781 3.75675 25.6735 3.75675 25.7685 3.76285C28.514 4.08144 31.1611 4.95379 33.5406 6.32418C35.9202 7.69456 37.9799 9.53286 39.5883 11.7217C40.507 12.9408 41.2738 14.2617 41.8726 15.6566C42.1532 16.3128 42.3935 16.9846 42.5921 17.6686C43.0082 19.0587 43.2573 20.4911 43.3345 21.937C43.3345 22.2927 43.3345 22.6706 43.3345 23.0486C43.3345 23.4265 43.3345 23.7377 43.3345 24.0823C43.2607 25.5586 43.0076 27.0212 42.5807 28.4397Z" fill="#FF385C"/>
<path d="M42.5122 22.0373C42.4346 20.6949 42.2087 19.3644 41.8383 18.069C41.6448 17.3835 41.4045 16.7114 41.1188 16.0571C40.585 14.7539 39.8908 13.5184 39.0516 12.3778C38.6376 11.7894 38.1835 11.2286 37.6924 10.6993C34.59 7.29077 30.311 5.10769 25.6658 4.56348C25.414 4.928 25.0739 5.22666 24.6756 5.43317C24.2772 5.63967 23.8328 5.74768 23.3815 5.74768C22.9302 5.74768 22.4858 5.63967 22.0874 5.43317C21.6891 5.22666 21.3491 4.928 21.0972 4.56348C18.0154 4.92214 15.0691 6.00349 12.5113 7.71464C9.95351 9.4258 7.86072 11.7156 6.41267 14.3875C4.96461 17.0593 4.20456 20.0333 4.1978 23.054C4.19104 26.0748 4.93776 29.0519 6.37384 31.7299C7.80993 34.4078 9.89244 36.7065 12.4425 38.4285C14.9926 40.1505 17.9341 41.2443 21.0143 41.6161C24.0945 41.9878 27.2214 41.6263 30.1264 40.5627C33.0314 39.499 35.6278 37.765 37.6924 35.5095C38.1836 34.9764 38.6377 34.412 39.0516 33.82C39.8883 32.6857 40.5823 31.4579 41.1188 30.1629C41.4058 29.5103 41.6425 28.8378 41.8269 28.151C42.2074 26.8574 42.4373 25.5262 42.5122 24.1827C42.5122 23.827 42.5122 23.4564 42.5122 23.0711C42.5122 22.6857 42.5122 22.3412 42.5122 22.0373ZM5.89548 22.0373H8.08837V24.1715H5.89548V22.0373ZM7.64294 30.5964L6.80918 28.6289L8.83076 27.8175L9.66451 29.785L7.64294 30.5964ZM8.78507 18.3692L6.75208 17.5577L7.59725 15.5791L9.61883 16.4017L8.78507 18.3692ZM39.063 15.5791L39.8967 17.5466L38.7546 18.0023L37.8637 18.358L37.5439 17.4577L37.0871 16.3461L39.063 15.5791ZM34.9627 10.3214L36.5046 11.822L34.9627 13.3337L33.4094 11.822L34.9627 10.3214ZM33.615 14.6454L32.0617 16.1571L30.5198 14.6454L32.0617 13.1448L33.615 14.6454ZM29.0465 6.97558L31.0681 7.79814L30.2343 9.76562L28.2127 8.94306L29.0465 6.97558ZM27.4818 10.666L29.5033 11.4774L28.6696 13.4449L26.7051 12.6335L27.4818 10.666ZM22.2736 6.09744H24.4208V8.22054H22.2736V6.09744ZM22.2736 10.0769H24.4208V12.2111H22.2736V10.0769ZM20.1036 12.6335L18.0706 13.4449L17.2368 11.4774L19.2584 10.666L20.1036 12.6335ZM17.6937 6.9867L18.5275 8.95417L16.5059 9.76562L15.6721 7.79814L17.6937 6.9867ZM16.2318 14.6565L14.6785 16.1571L13.1366 14.6565L14.6785 13.1448L16.2318 14.6565ZM11.7889 10.3325L13.3308 11.8331L11.7889 13.3449L10.2356 11.8331L11.7889 10.3325ZM11.7889 35.8986L10.247 34.3869L11.7889 32.8862L13.3422 34.3869L11.7889 35.8986ZM13.1366 31.5635L14.6899 30.0629L16.2318 31.5635L14.6899 33.0752L13.1366 31.5635ZM17.7051 39.2333L15.6835 38.4218L16.5173 36.4544L18.5389 37.2658L17.7051 39.2333ZM19.2698 35.554L17.2483 34.7314L18.082 32.764L20.1036 33.5865L19.2698 35.554ZM20.8346 31.9081L18.813 31.0966L19.6467 29.1291L21.6683 29.9406L20.8346 31.9081ZM24.478 40.167H22.2851V37.9883H24.478V40.167ZM24.478 36.1765H22.2851V33.9978H24.478V36.1765ZM22.2851 32.1859V30.0184H24.4208V32.1415L22.2851 32.1859ZM25.0833 29.9628L27.1049 29.1514L27.9386 31.1188L25.917 31.9081L25.0833 29.9628ZM26.7051 33.5754L28.7267 32.764L29.5719 34.7314L27.5503 35.554L26.7051 33.5754ZM29.115 39.2333L28.2812 37.2658L30.3028 36.4433L31.1366 38.4107L29.115 39.2333ZM30.5769 31.5635L32.1302 30.0517L33.6721 31.5635L32.0731 33.0196L30.5769 31.5635ZM35.0198 35.8875L33.4779 34.3757L35.0198 32.8751L36.5731 34.3757L35.0198 35.8875ZM36.7559 24.1271H35.4538V26.1279C35.4542 26.3372 35.4312 26.5459 35.3853 26.7504L36.162 27.0616L35.3168 29.0291L34.1061 28.5733C33.6334 28.8818 33.0762 29.0445 32.5071 29.0402H30.3942L29.1721 30.2407L27.9386 29.0402H18.8016L17.5681 30.2518L16.3231 29.0513H14.233C13.6659 29.0536 13.1104 28.8952 12.6341 28.5956L11.4234 29.0847L10.5896 27.1061L11.3434 26.806C11.2969 26.5978 11.2739 26.3854 11.2749 26.1724V24.1271H9.98431V22.0484H11.2749V19.3918L10.5896 19.1139L11.4234 17.1464L11.8688 17.3243C12.1478 16.9737 12.5065 16.6909 12.9167 16.4981C13.3269 16.3052 13.7775 16.2075 14.233 16.2127H17.3625H19.2356L18.8016 15.2012L20.8231 14.3786L21.6112 16.2127H22.2736V14.123H24.4208V16.2349H25.0833L25.8714 14.4009L27.8929 15.2234L27.4589 16.2349H32.5642C33.0182 16.2298 33.4671 16.3275 33.8755 16.5204C34.2838 16.7134 34.6404 16.9962 34.917 17.3465L35.3739 17.1575L36.2076 19.125L35.5109 19.4029V22.0596H36.7559V24.1271ZM39.1087 30.5519L37.0871 29.7405L37.5439 28.6289L37.9208 27.7286L38.8117 28.0843L39.9538 28.54L39.1087 30.5519ZM40.8561 24.1271H38.6632V22.0373H40.8561V24.1271Z" fill="#FF385C"/>
<path d="M33.8548 17.7244C33.4975 17.3761 33.0127 17.1802 32.507 17.1797H14.2329C13.9797 17.1793 13.729 17.2283 13.4956 17.3237C13.2622 17.4192 13.0507 17.5592 12.8738 17.7355C12.6916 17.9069 12.5471 18.1125 12.4489 18.3399C12.3508 18.5672 12.3011 18.8116 12.3027 19.0582V26.1723C12.2915 26.2497 12.2915 26.3283 12.3027 26.4057C12.3633 26.8577 12.5898 27.2731 12.9403 27.5755C13.2908 27.8778 13.7418 28.0466 14.2101 28.0508H32.4842C32.8359 28.0526 33.1808 27.9561 33.4779 27.7729C33.7389 27.6264 33.9594 27.4203 34.1206 27.1725C34.2817 26.9246 34.3786 26.6424 34.403 26.3501C34.4148 26.2765 34.4148 26.2015 34.403 26.1278V19.0138C34.3995 18.5309 34.2029 18.0684 33.8548 17.7244ZM19.9208 24.9718C19.6717 25.3226 19.3278 25.5996 18.9271 25.7721C18.4443 25.9745 17.9222 26.073 17.3967 26.0611H16.9398C16.5455 26.0333 16.1591 25.9393 15.7977 25.7832C15.5285 25.6703 15.2842 25.508 15.0781 25.3053C14.9606 25.1996 14.857 25.0801 14.7698 24.9496C14.608 24.7206 14.4918 24.4643 14.4271 24.1937C14.3782 24.0269 14.3476 23.8555 14.3357 23.6824H15.8548C15.8618 23.858 15.9004 24.0311 15.969 24.1937C16.0326 24.346 16.1301 24.4827 16.2545 24.5938C16.5482 24.8403 16.9298 24.9641 17.3167 24.9384C17.5499 24.9386 17.7815 24.9011 18.002 24.8273C18.1829 24.7705 18.3421 24.662 18.4588 24.516C18.5684 24.3844 18.6252 24.2185 18.6187 24.0492C18.6228 23.9484 18.6034 23.848 18.5618 23.7556C18.5203 23.6632 18.4577 23.5811 18.3789 23.5156C18.1675 23.372 17.9254 23.277 17.6708 23.2377L16.5286 23.0154L16.2545 22.9487C16.0899 22.912 15.9292 22.8599 15.7748 22.7931C15.5566 22.7002 15.3558 22.5725 15.1809 22.4152C15.0676 22.3158 14.9712 22.1995 14.8954 22.0706C14.8469 22.0041 14.8048 21.9334 14.7698 21.8594C14.6702 21.6192 14.6198 21.3625 14.6213 21.1035C14.6152 20.9962 14.6152 20.8885 14.6213 20.7812C14.6643 20.5012 14.7738 20.2348 14.9411 20.0031C15.1788 19.6774 15.5024 19.4202 15.8776 19.2583C15.9929 19.2072 16.1111 19.1627 16.2317 19.1249C16.5622 19.0333 16.9045 18.9884 17.2482 18.9915H17.568C17.9644 19.006 18.3534 19.1006 18.7101 19.2694C19.1136 19.4476 19.4607 19.7278 19.7152 20.0809C19.9814 20.4451 20.1287 20.8789 20.1378 21.3258H18.6302C18.6215 21.0986 18.5548 20.877 18.436 20.6811C18.3274 20.5014 18.1691 20.3551 17.9791 20.2587C17.7741 20.1577 17.5464 20.108 17.3167 20.1142C17.1917 20.0966 17.0648 20.0966 16.9398 20.1142C16.8559 20.1266 16.7747 20.1529 16.7 20.192C16.5428 20.2579 16.4081 20.3658 16.3116 20.5033C16.2218 20.6351 16.1741 20.7898 16.1746 20.9479C16.1668 21.0915 16.2113 21.2332 16.3002 21.3481H16.3687C16.4415 21.4258 16.5313 21.4866 16.6314 21.5259C16.7832 21.5836 16.9399 21.6282 17.0997 21.6593L18.3218 21.8927C18.8464 21.9718 19.3396 22.1868 19.7494 22.5152C19.9167 22.668 20.0474 22.8548 20.1323 23.0623C20.2172 23.2697 20.2541 23.4928 20.2406 23.7157C20.2765 24.1571 20.1642 24.5978 19.9208 24.9718ZM26.0083 24.9718C25.7611 25.3199 25.4217 25.5965 25.0261 25.7721C24.5389 25.9734 24.0134 26.0719 23.4842 26.0611C22.9537 26.0737 22.427 25.9712 21.9423 25.761C21.5177 25.5911 21.1555 25.3006 20.903 24.9273C20.6424 24.5513 20.4924 24.1131 20.469 23.6601H21.988C21.9924 24.0034 22.1361 24.331 22.3878 24.5716C22.6814 24.818 23.0631 24.9418 23.4499 24.9162C23.6832 24.9175 23.915 24.8799 24.1352 24.805C24.3161 24.7482 24.4753 24.6398 24.5921 24.4938C24.7049 24.3632 24.7657 24.1975 24.7634 24.0269C24.7653 23.9254 24.7436 23.8247 24.7002 23.7323C24.6567 23.64 24.5924 23.5583 24.5121 23.4934C24.3051 23.3496 24.0666 23.2545 23.8154 23.2155L22.6733 22.9932C22.416 22.9547 22.1659 22.8798 21.9309 22.7709C21.7078 22.6807 21.5028 22.5527 21.3256 22.3929C21.1537 22.2346 21.0142 22.046 20.9144 21.8372C20.8149 21.597 20.7644 21.3403 20.7659 21.0813C20.7575 20.685 20.8774 20.2961 21.1086 19.9697C21.3499 19.6473 21.6724 19.3909 22.0451 19.225C22.4769 19.0409 22.9444 18.9498 23.4157 18.9582C23.9082 18.945 24.3971 19.044 24.8433 19.2472C25.2469 19.4254 25.594 19.7056 25.8484 20.0587C26.1147 20.4229 26.2619 20.8567 26.271 21.3036H24.7177C24.7091 21.0763 24.6424 20.8547 24.5236 20.6589C24.415 20.4792 24.2567 20.3328 24.0667 20.2365C23.8617 20.1355 23.634 20.0858 23.4043 20.092C23.1915 20.0826 22.9796 20.1246 22.7875 20.2143C22.6304 20.2801 22.4957 20.388 22.3992 20.5255C22.3094 20.6573 22.2617 20.812 22.2621 20.9701C22.2596 21.1131 22.3036 21.2531 22.3878 21.3703C22.4868 21.4752 22.6074 21.5585 22.7418 21.6148C22.8976 21.6724 23.058 21.7171 23.2215 21.7482L24.4322 21.9817C24.9575 22.0586 25.4512 22.2738 25.8598 22.6041C26.0271 22.757 26.1578 22.9437 26.2427 23.1512C26.3276 23.3586 26.3645 23.5817 26.351 23.8046C26.3607 24.2185 26.2413 24.6254 26.0083 24.9718ZM32.4157 22.0372C32.3588 22.2453 32.2703 22.4439 32.153 22.6264C31.9205 22.9857 31.5822 23.2685 31.1822 23.4378C30.9628 23.5308 30.7327 23.598 30.4969 23.6379C30.2292 23.6836 29.9578 23.7059 29.686 23.7046H28.5439V25.9277H27.0362V19.0582H29.6631C29.9141 19.0404 30.166 19.0404 30.4169 19.0582C30.6675 19.0984 30.9126 19.1655 31.1479 19.2583C31.5444 19.4116 31.8831 19.6792 32.1187 20.0253L32.3129 20.4922C32.3781 20.7279 32.4127 20.9706 32.4157 21.2147C32.4585 21.4873 32.4585 21.7646 32.4157 22.0372Z" fill="#FF385C"/>
<path d="M30.9773 21.3592C30.9916 21.6052 30.91 21.8473 30.7488 22.0373C30.7207 22.089 30.6818 22.1344 30.6346 22.1707C30.5892 22.2174 30.5349 22.2551 30.4747 22.2818C30.2257 22.4231 29.9405 22.4925 29.6524 22.4819H28.5103V20.2588H29.8351C30.1179 20.2683 30.39 20.3657 30.6118 20.5367C30.7069 20.6136 30.7853 20.7083 30.8422 20.8153C30.8991 20.9222 30.9334 21.0391 30.943 21.1592C30.9647 21.2238 30.9762 21.2913 30.9773 21.3592Z" fill="#FF385C"/>
<path d="M23.3699 0.784182C18.8335 0.781984 14.3983 2.08918 10.6253 4.54042C6.85233 6.99167 3.91105 10.4769 2.17348 14.5552C0.435904 18.6335 -0.0198956 23.1217 0.863727 27.4521C1.74735 31.7826 3.9307 35.7607 7.13762 38.8834C10.3445 42.006 14.431 44.1329 18.88 44.9951C23.3291 45.8572 27.941 45.4158 32.1323 43.7268C36.3236 42.0377 39.906 39.1769 42.4266 35.5061C44.9471 31.8353 46.2924 27.5195 46.2924 23.1045C46.2864 17.1885 43.8698 11.5163 39.5726 7.33207C35.2754 3.14779 29.4485 0.793009 23.3699 0.784182ZM23.3699 44.4132C19.0363 44.4154 14.7994 43.1666 11.1952 40.8248C7.59102 38.483 4.78149 35.1534 3.12206 31.2573C1.46262 27.3611 1.02785 23.0735 1.87273 18.9368C2.71762 14.8001 4.8042 11.0002 7.86851 8.01793C10.9328 5.03562 14.8372 3.00487 19.0876 2.18259C23.338 1.36032 27.7435 1.78346 31.7468 3.39849C35.7501 5.01352 39.1712 7.74786 41.5774 11.2556C43.9836 14.7633 45.2668 18.8869 45.2645 23.1045C45.2585 28.7541 42.9498 34.1707 38.845 38.1655C34.7403 42.1604 29.1748 44.4074 23.3699 44.4132Z" fill="#FF385C"/>
<path d="M239.802 16.2691C239.132 15.3015 238.182 14.5488 237.072 14.1062C235.731 13.6007 234.302 13.3536 232.864 13.3787H225.462V32.8052H229.689V26.4739H232.864C234.307 26.5064 235.74 26.2452 237.072 25.707C238.199 25.2445 239.153 24.4548 239.802 23.4458C240.477 22.3629 240.814 21.1131 240.773 19.8476C240.817 18.5881 240.48 17.3436 239.802 16.2691ZM235.595 22.1678C234.816 22.7687 233.837 23.0697 232.844 23.0133H229.689V16.8983H232.844C233.83 16.8414 234.805 17.1272 235.595 17.7044C235.92 17.9787 236.176 18.3214 236.344 18.7064C236.513 19.0914 236.588 19.5086 236.566 19.9263C236.577 20.3455 236.497 20.7623 236.329 21.1488C236.162 21.5354 235.911 21.8827 235.595 22.1678Z" fill="#FF385C"/>
<path d="M247.609 18.8646C246.632 19.4011 245.826 20.1906 245.283 21.1454V18.3534H241.683V32.8053H245.526V25.8054C245.468 24.9347 245.71 24.07 246.213 23.3476C246.724 22.7459 247.443 22.3472 248.236 22.2269C249.182 22.0482 250.149 22.0019 251.108 22.0892V18.314C249.911 18.1289 248.685 18.3218 247.609 18.8646Z" fill="#FF385C"/>
<path d="M265.634 22.6395C265.263 21.7588 264.728 20.9522 264.056 20.2603C263.376 19.5726 262.557 19.0302 261.649 18.6677C259.707 17.8855 257.524 17.8855 255.581 18.6677C254.683 19.0355 253.871 19.5774 253.195 20.2603C252.516 20.9472 251.98 21.755 251.617 22.6395C250.83 24.5313 250.83 26.6464 251.617 28.5382C251.98 29.4287 252.515 30.2431 253.195 30.937C253.871 31.6199 254.683 32.1618 255.581 32.5297C257.524 33.3118 259.707 33.3118 261.649 32.5297C262.557 32.1672 263.376 31.6247 264.056 30.937C264.728 30.2374 265.262 29.4245 265.634 28.5382C266.394 26.6415 266.394 24.5362 265.634 22.6395ZM261.73 27.85C261.439 28.4275 260.991 28.9169 260.436 29.2657C259.901 29.5874 259.285 29.7577 258.656 29.7573C258.034 29.752 257.426 29.5821 256.896 29.2657C256.334 28.9181 255.88 28.4288 255.581 27.85C255.261 27.1333 255.096 26.3603 255.096 25.579C255.096 24.7977 255.261 24.0247 255.581 23.308C255.875 22.7311 256.331 22.247 256.896 21.912C257.432 21.6041 258.043 21.4416 258.666 21.4416C259.288 21.4416 259.9 21.6041 260.436 21.912C260.996 22.2474 261.445 22.7319 261.73 23.308C262.039 24.0275 262.198 24.7994 262.198 25.579C262.198 26.3586 262.039 27.1305 261.73 27.85Z" fill="#FF385C"/>
</svg>
